<svg xmlns="http://www.w3.org/2000/svg" viewBox="0 0 800 1000" role="img" aria-label="Placeholder cover for The Ube Folk of Amihan Hollow">
  <defs>
    <linearGradient id="sky" x1="0" y1="0" x2="0" y2="1">
      <stop offset="0%" stop-color="#c4b5fd"/>
      <stop offset="55%" stop-color="#8b5cf6"/>
      <stop offset="100%" stop-color="#312e81"/>
    </linearGradient>
    <linearGradient id="hill" x1="0" y1="0" x2="1" y2="1">
      <stop offset="0%" stop-color="#6d28d9"/>
      <stop offset="100%" stop-color="#4c1d95"/>
    </linearGradient>
  </defs>
  <rect width="800" height="1000" fill="url(#sky)"/>
  <circle cx="652" cy="144" r="74" fill="#fef3c7" opacity="0.9"/>
  <path d="M0 632 C120 560 210 558 332 600 C448 640 548 622 800 540 L800 1000 L0 1000 Z" fill="#14532d"/>
  <path d="M0 700 C160 620 324 636 496 704 C604 748 676 748 800 692 L800 1000 L0 1000 Z" fill="#166534"/>
  <g opacity="0.95">
    <ellipse cx="174" cy="678" rx="118" ry="52" fill="#7c3aed"/>
    <ellipse cx="322" cy="648" rx="132" ry="58" fill="#8b5cf6"/>
    <ellipse cx="500" cy="690" rx="138" ry="60" fill="#6d28d9"/>
    <ellipse cx="666" cy="650" rx="116" ry="50" fill="#7e22ce"/>
  </g>
  <g stroke="#fef3c7" stroke-width="6" stroke-linecap="round" opacity="0.65">
    <path d="M90 612 L740 612"/>
    <path d="M60 748 L770 748"/>
    <path d="M172 576 L172 796"/>
    <path d="M320 548 L320 826"/>
    <path d="M500 584 L500 842"/>
    <path d="M660 552 L660 806"/>
  </g>
  <g transform="translate(115 520)">
    <ellipse cx="0" cy="0" rx="46" ry="60" fill="#a78bfa"/>
    <path d="M-36 -58 L0 -98 L36 -58" fill="#65a30d"/>
    <ellipse cx="-40" cy="-18" rx="18" ry="8" fill="#86efac" transform="rotate(-28 -40 -18)"/>
    <ellipse cx="40" cy="-18" rx="18" ry="8" fill="#86efac" transform="rotate(28 40 -18)"/>
    <circle cx="-14" cy="-8" r="5" fill="#1f2937"/>
    <circle cx="14" cy="-8" r="5" fill="#1f2937"/>
    <path d="M-10 12 Q0 22 10 12" fill="none" stroke="#1f2937" stroke-width="4"/>
    <rect x="-28" y="18" width="56" height="28" rx="10" fill="#f59e0b"/>
  </g>
  <g transform="translate(275 500) scale(1.05)">
    <ellipse cx="0" cy="0" rx="46" ry="60" fill="#c4b5fd"/>
    <path d="M-38 -58 L0 -100 L38 -58" fill="#84cc16"/>
    <ellipse cx="-42" cy="-16" rx="18" ry="8" fill="#bef264" transform="rotate(-28 -42 -16)"/>
    <ellipse cx="42" cy="-16" rx="18" ry="8" fill="#bef264" transform="rotate(28 42 -16)"/>
    <circle cx="-14" cy="-8" r="5" fill="#1f2937"/>
    <circle cx="14" cy="-8" r="5" fill="#1f2937"/>
    <path d="M-10 12 Q0 24 10 12" fill="none" stroke="#1f2937" stroke-width="4"/>
    <rect x="-28" y="18" width="56" height="28" rx="10" fill="#22c55e"/>
  </g>
  <g transform="translate(452 535) scale(0.98)">
    <ellipse cx="0" cy="0" rx="46" ry="60" fill="#8b5cf6"/>
    <path d="M-38 -58 L0 -100 L38 -58" fill="#a3e635"/>
    <ellipse cx="-42" cy="-16" rx="18" ry="8" fill="#d9f99d" transform="rotate(-28 -42 -16)"/>
    <ellipse cx="42" cy="-16" rx="18" ry="8" fill="#d9f99d" transform="rotate(28 42 -16)"/>
    <circle cx="-14" cy="-8" r="5" fill="#1f2937"/>
    <circle cx="14" cy="-8" r="5" fill="#1f2937"/>
    <path d="M-10 12 Q0 22 10 12" fill="none" stroke="#1f2937" stroke-width="4"/>
    <rect x="-30" y="18" width="60" height="28" rx="10" fill="#f97316"/>
  </g>
  <g transform="translate(610 502) scale(1.02)">
    <ellipse cx="0" cy="0" rx="46" ry="60" fill="#a855f7"/>
    <path d="M-38 -58 L0 -102 L38 -58" fill="#65a30d"/>
    <ellipse cx="-42" cy="-16" rx="18" ry="8" fill="#86efac" transform="rotate(-28 -42 -16)"/>
    <ellipse cx="42" cy="-16" rx="18" ry="8" fill="#86efac" transform="rotate(28 42 -16)"/>
    <circle cx="-14" cy="-8" r="5" fill="#1f2937"/>
    <circle cx="14" cy="-8" r="5" fill="#1f2937"/>
    <path d="M-10 12 Q0 24 10 12" fill="none" stroke="#1f2937" stroke-width="4"/>
    <rect x="-28" y="18" width="56" height="28" rx="10" fill="#06b6d4"/>
  </g>
  <rect x="140" y="802" width="520" height="80" rx="40" fill="#fef3c7" opacity="0.95"/>
  <text x="400" y="115" text-anchor="middle" font-family="Trebuchet MS, Verdana, sans-serif" font-size="52" font-weight="700" fill="#fff7ed">The Ube Folk</text>
  <text x="400" y="170" text-anchor="middle" font-family="Trebuchet MS, Verdana, sans-serif" font-size="40" font-weight="700" fill="#fff7ed">of Amihan Hollow</text>
  <text x="400" y="853" text-anchor="middle" font-family="Trebuchet MS, Verdana, sans-serif" font-size="28" font-weight="700" fill="#4c1d95">placeholder cover • final painted art can replace</text>
</svg>
